{
  "accessors": [
    {
      "bufferView": 2,
      "componentType": 5126,
      "count": 33043,
      "max": [
        39.84033203125,
        19.4990177154541,
        33.254764556884766
      ],
      "min": [
        -39.840328216552734,
        -4.191650390625,
        -39.7451057434082
      ],
      "type": "VEC3"
    },
    {
      "bufferView": 2,
      "byteOffset": 396516,
      "componentType": 5126,
      "count": 33043,
      "max": [
        1.0,
        1.0,
        1.0
      ],
      "min": [
        -1.0,
        -0.999998927116394,
        -1.0
      ],
      "type": "VEC3"
    },
    {
      "bufferView": 1,
      "componentType": 5126,
      "count": 33043,
      "max": [
        0.991211473941803,
        0.9953866600990295
      ],
      "min": [
        0.0025309163611382246,
        0.026265835389494896
      ],
      "type": "VEC2"
    },
    {
      "bufferView": 0,
      "componentType": 5125,
      "count": 124884,
      "type": "SCALAR"
    },
    {
      "bufferView": 2,
      "byteOffset": 793032,
      "componentType": 5126,
      "count": 18634,
      "max": [
        6.566406726837158,
        -0.5753463506698608,
        -2.8977344036102295
      ],
      "min": [
        -6.5664143562316895,
        -5.187024116516113,
        -35.9415283203125
      ],
      "type": "VEC3"
    },
    {
      "bufferView": 2,
      "byteOffset": 1016640,
      "componentType": 5126,
      "count": 18634,
      "max": [
        1.0,
        1.0,
        1.0
      ],
      "min": [
        -1.0,
        -1.0,
        -1.0
      ],
      "type": "VEC3"
    },
    {
      "bufferView": 1,
      "byteOffset": 264344,
      "componentType": 5126,
      "count": 18634,
      "max": [
        0.8511508107185364,
        0.983555793762207
      ],
      "min": [
        0.014291231520473957,
        0.7276659607887268
      ],
      "type": "VEC2"
    },
    {
      "bufferView": 0,
      "byteOffset": 499536,
      "componentType": 5125,
      "count": 77856,
      "type": "SCALAR"
    }
  ],
  "asset": {
    "extras": {
      "author": "Brout (https://sketchfab.com/davidbroutian)",
      "license": "CC-BY-4.0 (http://creativecommons.org/licenses/by/4.0/)",
      "source": "https://sketchfab.com/3d-models/airbus-a380-98d21f9c8104445f814cef47ef992889",
      "title": "Airbus A380"
    },
    "generator": "Sketchfab-15.30.0",
    "version": "2.0"
  },
  "bufferViews": [
    {
      "buffer": 0,
      "byteLength": 810960,
      "name": "floatBufferViews",
      "target": 34963
    },
    {
      "buffer": 0,
      "byteLength": 413416,
      "byteOffset": 810960,
      "byteStride": 8,
      "name": "floatBufferViews",
      "target": 34962
    },
    {
      "buffer": 0,
      "byteLength": 1240248,
      "byteOffset": 1224376,
      "byteStride": 12,
      "name": "floatBufferViews",
      "target": 34962
    }
  ],
  "buffers": [
    {
      "byteLength": 2464624,
      "uri": "scene.bin"
    }
  ],
  "extensionsRequired": [
    "KHR_materials_pbrSpecularGlossiness"
  ],
  "extensionsUsed": [
    "KHR_materials_pbrSpecularGlossiness"
  ],
  "images": [
    {
      "uri": "textures/A380_diffuse.jpeg"
    }
  ],
  "materials": [
    {
      "doubleSided": true,
      "extensions": {
        "KHR_materials_pbrSpecularGlossiness": {
          "diffuseFactor": [
            1.0,
            1.0,
            1.0,
            1.0
          ],
          "diffuseTexture": {
            "index": 0
          },
          "glossinessFactor": 0.6140971096292864,
          "specularFactor": [
            0.0,
            0.0,
            0.0
          ]
        }
      },
      "name": "A380"
    }
  ],
  "meshes": [
    {
      "name": "Object_0",
      "primitives": [
        {
          "attributes": {
            "NORMAL": 1,
            "POSITION": 0,
            "TEXCOORD_0": 2
          },
          "indices": 3,
          "material": 0,
          "mode": 4
        }
      ]
    },
    {
      "name": "Object_1",
      "primitives": [
        {
          "attributes": {
            "NORMAL": 5,
            "POSITION": 4,
            "TEXCOORD_0": 6
          },
          "indices": 7,
          "material": 0,
          "mode": 4
        }
      ]
    }
  ],
  "nodes": [
    {
      "children": [
        1
      ],
      "matrix": [
        1.0,
        0.0,
        0.0,
        0.0,
        0.0,
        2.220446049250313e-16,
        -1.0,
        0.0,
        0.0,
        1.0,
        2.220446049250313e-16,
        0.0,
        0.0,
        0.0,
        0.0,
        1.0
      ],
      "name": "Sketchfab_model"
    },
    {
      "children": [
        2
      ],
      "name": "root"
    },
    {
      "children": [
        3
      ],
      "matrix": [
        1.0,
        0.0,
        0.0,
        0.0,
        0.0,
        2.220446049250313e-16,
        1.0,
        0.0,
        0.0,
        -1.0,
        2.220446049250313e-16,
        0.0,
        0.0,
        0.0,
        0.0,
        1.0
      ],
      "name": "GLTF_SceneRootNode"
    },
    {
      "children": [
        4,
        6
      ],
      "name": "A380_low_2"
    },
    {
      "children": [
        5
      ],
      "matrix": [
        1.0,
        0.0,
        0.0,
        0.0,
        0.0,
        1.0,
        0.0,
        0.0,
        0.0,
        0.0,
        1.0,
        0.0,
        0.0,
        5.210607051849365,
        10.766986846923828,
        1.0
      ],
      "name": "A380_0"
    },
    {
      "mesh": 0,
      "name": "Object_5"
    },
    {
      "children": [
        7
      ],
      "matrix": [
        1.0,
        0.0,
        0.0,
        0.0,
        0.0,
        1.0,
        0.0,
        0.0,
        0.0,
        0.0,
        1.0,
        0.0,
        0.0,
        5.210607051849365,
        10.766986846923828,
        1.0
      ],
      "name": "Wheels_1"
    },
    {
      "mesh": 1,
      "name": "Object_7"
    }
  ],
  "samplers": [
    {
      "magFilter": 9729,
      "minFilter": 9987,
      "wrapS": 10497,
      "wrapT": 10497
    }
  ],
  "scene": 0,
  "scenes": [
    {
      "name": "Sketchfab_Scene",
      "nodes": [
        0
      ]
    }
  ],
  "textures": [
    {
      "sampler": 0,
      "source": 0
    }
  ]
}
