<?xml version="1.0" standalone="no"?>
<!-- Generator: Adobe Fireworks 10, Export SVG Extension by Aaron Beall (http://fireworks.abeall.com) . Version: 0.6.1  -->
<!DOCTYPE svg PUBLIC "-//W3C//DTD SVG 1.1//EN" "http://www.w3.org/Graphics/SVG/1.1/DTD/svg11.dtd">
<svg id="types-8-Page%201" viewBox="0 0 535 466" style="background-color:#ffffff00" version="1.1"
	xmlns="http://www.w3.org/2000/svg" xmlns:xlink="http://www.w3.org/1999/xlink" xml:space="preserve"
	x="0px" y="0px" width="535px" height="466px"
>
	<path d="M 270.5 22.5 C 289.5 53.5 290.5 84.5 293.5 115.5 L 294.5 155.5 C 296.5 152.5 298.5 154.5 300.5 154.5 C 306.5 155.5 313.5 154.5 333.5 156.5 C 392.5 159.5 451.5 164.5 510.5 168.5 C 513.5 168.5 516.5 169.5 519.5 171.5 L 519.5 202.5 C 518.5 213.5 516.5 224.5 515.5 234.5 C 512.5 236.5 507.5 236.5 504.5 236.5 C 434.5 243.5 363.5 249.5 292.5 255.5 C 291.5 258.5 289.5 262.5 289.5 265.5 C 286.5 295.5 282.5 356.5 282.5 359.5 L 282.5 378.5 C 300.5 384.5 319.5 391.5 338.5 397.5 C 340.5 400.5 340.5 405.5 340.5 407.5 C 340.5 410.5 339.5 417.5 338.5 422.5 C 318.5 427.5 296.5 426.5 275.5 430.5 C 272.5 434.5 273.5 443.5 265.5 443.5 L 263.5 443.5 C 262.5 438.5 262.5 435.5 261.5 432.5 C 251.5 426.5 239.5 427.5 229.5 426.5 C 219.5 426.5 208.5 425.5 198.5 423.5 C 194.5 420.5 195.5 411.5 195.5 408.5 C 195.5 405.5 194.5 399.5 198.5 397.5 C 203.5 394.5 254.5 383.5 254.5 372.5 C 254.5 370.5 248.5 296.5 244.5 258.5 C 244.5 257.5 243.5 256.5 242.5 255.5 C 230.5 253.5 216.5 252.5 204.5 251.5 C 143.5 246.5 82.5 241.5 21.5 235.5 C 20.5 235.5 20.5 234.5 19.5 233.5 C 18.5 216.5 15.5 183.5 15.5 180.5 C 15.5 178.5 14.5 171.5 18.5 170.5 C 30.5 166.5 45.5 167.5 59.5 166.5 C 119.5 161.5 180.5 158.5 241.5 154.5 C 241.5 152.5 242.5 150.5 242.5 147.5 C 242.5 145.5 240.5 144.5 240.5 141.5 C 240.5 139.5 242.5 122.5 242.5 119.5 C 242.5 117.5 243.5 105.5 243.5 101.5 C 243.5 100.5 243.5 98.5 243.5 96.5 C 245.5 72.5 248.5 46.5 264.5 22.5 L 270.5 22.5 Z"/>
</svg>