<?xml version="1.0" standalone="no"?>
<!-- Generator: Adobe Fireworks 10, Export SVG Extension by Aaron Beall (http://fireworks.abeall.com) . Version: 0.6.1  -->
<!DOCTYPE svg PUBLIC "-//W3C//DTD SVG 1.1//EN" "http://www.w3.org/Graphics/SVG/1.1/DTD/svg11.dtd">
<svg id="types-2-Page%201" viewBox="0 0 635 393" style="background-color:#ffffff00" version="1.1"
	xmlns="http://www.w3.org/2000/svg" xmlns:xlink="http://www.w3.org/1999/xlink" xml:space="preserve"
	x="0px" y="0px" width="635px" height="393px"
>
	<path d="M 326.5 41.5 C 326.5 48.5 329.5 55.5 329.5 62.5 C 330.5 72.5 328.5 84.5 337.5 91.5 C 338.5 93.5 370.5 96.5 379.5 96.5 C 385.5 96.5 387.5 97.5 389.5 86.5 L 380.5 86.5 C 376.5 87.5 369.5 89.5 366.5 89.5 C 361.5 89.5 363.5 88.5 360.5 82.5 C 361.5 82.5 360.5 81.5 363.5 81.5 C 365.5 81.5 381.5 84.5 384.5 84.5 C 392.5 84.5 392.5 76.5 396.5 76.5 C 398.5 76.5 409.5 84.5 412.5 84.5 C 414.5 84.5 422.5 83.5 437.5 82.5 C 437.5 82.5 438.5 81.5 438.5 84.5 C 438.5 88.5 430.5 87.5 430.5 87.5 C 428.5 87.5 416.5 85.5 414.5 85.5 C 411.5 85.5 405.5 89.5 405.5 92.5 C 405.5 94.5 406.5 98.5 409.5 98.5 C 422.5 102.5 448.5 108.5 451.5 108.5 C 453.5 108.5 452.5 107.5 454.5 107.5 C 454.5 106.5 452.5 95.5 459.5 95.5 C 466.5 95.5 461.5 108.5 467.5 110.5 C 482.5 116.5 500.5 117.5 516.5 120.5 C 531.5 123.5 546.5 128.5 563.5 130.5 C 583.5 134.5 604.5 135.5 604.5 159.5 L 604.5 165.5 C 594.5 160.5 587.5 160.5 578.5 160.5 L 405.5 166.5 C 384.5 168.5 361.5 169.5 340.5 174.5 C 337.5 174.5 335.5 179.5 335.5 181.5 C 331.5 219.5 327.5 293.5 327.5 296.5 L 327.5 316.5 C 342.5 323.5 358.5 329.5 374.5 336.5 C 376.5 337.5 377.5 340.5 377.5 342.5 C 377.5 345.5 376.5 345.5 376.5 347.5 C 360.5 348.5 343.5 350.5 326.5 351.5 C 322.5 358.5 323.5 370.5 323.5 379.5 L 320.5 379.5 C 313.5 354.5 322.5 350.5 300.5 350.5 L 280.5 350.5 C 273.5 346.5 263.5 353.5 263.5 344.5 C 263.5 332.5 312.5 323.5 312.5 312.5 C 312.5 310.5 305.5 222.5 298.5 179.5 C 297.5 172.5 287.5 173.5 282.5 172.5 C 269.5 170.5 256.5 170.5 243.5 169.5 L 47.5 167.5 C 42.5 168.5 36.5 171.5 31.5 172.5 L 31.5 165.5 C 31.5 162.5 32.5 161.5 32.5 159.5 C 29.5 145.5 52.5 145.5 55.5 136.5 L 55.5 140.5 C 91.5 132.5 126.5 123.5 160.5 116.5 C 175.5 113.5 163.5 99.5 173.5 99.5 C 180.5 99.5 174.5 111.5 182.5 111.5 C 189.5 111.5 215.5 103.5 217.5 102.5 C 218.5 98.5 220.5 93.5 221.5 89.5 C 220.5 88.5 221.5 88.5 218.5 88.5 C 216.5 88.5 208.5 91.5 203.5 92.5 C 201.5 89.5 200.5 86.5 199.5 83.5 C 207.5 84.5 216.5 86.5 218.5 86.5 C 227.5 86.5 224.5 79.5 228.5 79.5 C 231.5 79.5 236.5 82.5 241.5 84.5 C 243.5 85.5 248.5 84.5 251.5 84.5 L 263.5 84.5 C 263.5 84.5 263.5 85.5 264.5 86.5 C 260.5 94.5 238.5 80.5 238.5 94.5 C 238.5 99.5 243.5 98.5 245.5 98.5 C 257.5 98.5 294.5 93.5 295.5 92.5 C 301.5 86.5 300.5 78.5 301.5 72.5 C 301.5 68.5 302.5 13.5 315.5 13.5 C 325.5 13.5 326.5 39.5 326.5 41.5 Z"/>
</svg>