<?xml version="1.0" standalone="no"?>
<!-- Generator: Adobe Fireworks 10, Export SVG Extension by Aaron Beall (http://fireworks.abeall.com) . Version: 0.6.1  -->
<!DOCTYPE svg PUBLIC "-//W3C//DTD SVG 1.1//EN" "http://www.w3.org/Graphics/SVG/1.1/DTD/svg11.dtd">
<svg id="types-7-Page%201" viewBox="0 0 710 352" style="background-color:#ffffff00" version="1.1"
	xmlns="http://www.w3.org/2000/svg" xmlns:xlink="http://www.w3.org/1999/xlink" xml:space="preserve"
	x="0px" y="0px" width="710px" height="352px"
>
	<path d="M 400.5 69.5 C 417.5 79.5 435.5 90.5 453.5 101.5 L 456.5 101.5 L 456.5 93.5 C 455.5 86.5 456.5 76.5 452.5 70.5 C 448.5 63.5 438.5 59.5 431.5 53.5 C 431.5 52.5 431.5 50.5 433.5 50.5 C 440.5 50.5 465.5 69.5 466.5 69.5 C 473.5 72.5 484.5 80.5 490.5 87.5 C 489.5 88.5 489.5 88.5 487.5 88.5 C 484.5 88.5 473.5 82.5 466.5 77.5 C 461.5 81.5 461.5 92.5 461.5 99.5 C 461.5 102.5 461.5 103.5 461.5 104.5 C 496.5 126.5 532.5 144.5 567.5 163.5 C 590.5 177.5 616.5 188.5 640.5 203.5 C 646.5 207.5 649.5 215.5 653.5 221.5 C 659.5 229.5 665.5 240.5 671.5 250.5 C 673.5 252.5 673.5 258.5 673.5 260.5 C 673.5 263.5 672.5 271.5 672.5 277.5 C 608.5 248.5 550.5 227.5 490.5 217.5 C 482.5 216.5 468.5 213.5 465.5 213.5 L 460.5 213.5 C 461.5 231.5 460.5 236.5 460.5 239.5 C 460.5 246.5 459.5 253.5 463.5 260.5 C 470.5 256.5 478.5 251.5 486.5 248.5 C 486.5 248.5 487.5 249.5 488.5 249.5 C 484.5 255.5 470.5 261.5 464.5 267.5 C 453.5 275.5 441.5 282.5 433.5 287.5 L 430.5 287.5 C 430.5 287.5 429.5 287.5 429.5 285.5 C 429.5 282.5 444.5 274.5 450.5 267.5 C 453.5 263.5 453.5 258.5 454.5 254.5 L 454.5 211.5 L 367.5 201.5 C 363.5 202.5 358.5 203.5 354.5 205.5 C 353.5 209.5 353.5 219.5 350.5 224.5 C 360.5 228.5 371.5 225.5 382.5 228.5 L 383.5 230.5 C 374.5 231.5 358.5 231.5 355.5 231.5 C 353.5 231.5 351.5 233.5 348.5 233.5 C 346.5 233.5 347.5 232.5 346.5 231.5 C 334.5 230.5 326.5 232.5 315.5 227.5 C 325.5 227.5 336.5 226.5 347.5 226.5 L 347.5 219.5 C 341.5 215.5 344.5 210.5 343.5 205.5 C 337.5 200.5 334.5 201.5 327.5 201.5 L 243.5 208.5 C 247.5 211.5 243.5 230.5 243.5 236.5 C 243.5 239.5 243.5 255.5 246.5 264.5 C 247.5 267.5 252.5 268.5 255.5 270.5 C 259.5 274.5 265.5 277.5 269.5 283.5 L 263.5 283.5 C 241.5 273.5 220.5 259.5 208.5 247.5 C 209.5 247.5 208.5 246.5 211.5 246.5 C 213.5 246.5 226.5 253.5 233.5 257.5 C 237.5 255.5 234.5 245.5 237.5 242.5 L 237.5 211.5 C 236.5 211.5 237.5 210.5 234.5 210.5 C 232.5 210.5 215.5 213.5 206.5 214.5 C 146.5 223.5 84.5 242.5 25.5 269.5 L 25.5 243.5 C 38.5 227.5 48.5 200.5 69.5 190.5 C 126.5 164.5 182.5 133.5 239.5 103.5 C 238.5 83.5 238.5 78.5 237.5 74.5 C 229.5 79.5 221.5 83.5 213.5 86.5 L 211.5 84.5 C 230.5 70.5 252.5 50.5 269.5 47.5 L 271.5 49.5 C 264.5 56.5 253.5 59.5 248.5 68.5 C 244.5 74.5 245.5 90.5 245.5 93.5 C 245.5 95.5 245.5 98.5 247.5 98.5 C 250.5 98.5 306.5 63.5 336.5 48.5 C 340.5 45.5 348.5 45.5 350.5 45.5 C 367.5 45.5 382.5 59.5 400.5 69.5 Z"/>
</svg>