<?xml version="1.0" standalone="no"?>
<!-- Generator: Adobe Fireworks 10, Export SVG Extension by Aaron Beall (http://fireworks.abeall.com) . Version: 0.6.1  -->
<!DOCTYPE svg PUBLIC "-//W3C//DTD SVG 1.1//EN" "http://www.w3.org/Graphics/SVG/1.1/DTD/svg11.dtd">
<svg id="types-1-Page%201" viewBox="0 0 339 509" style="background-color:#ffffff00" version="1.1"
	xmlns="http://www.w3.org/2000/svg" xmlns:xlink="http://www.w3.org/1999/xlink" xml:space="preserve"
	x="0px" y="0px" width="339px" height="509px"
>
	<path d="M 143 132 L 173 14 L 202 133 L 266 193 L 264 209 L 215 199 L 226 257 L 332 347 L 331 377 L 215 396 L 236 440 L 236 474 L 208 448 L 208 465 L 182 473 L 182 462 L 154 462 L 154 473 L 127 465 L 127 448 L 90 471 L 90 438 L 119 395 L 8 372 L 8 343 L 115 256 L 128 197 L 75 207 L 76 191 L 143 132 Z"/>
</svg>