<?xml version="1.0" standalone="no"?>
<!-- Generator: Adobe Fireworks 10, Export SVG Extension by Aaron Beall (http://fireworks.abeall.com) . Version: 0.6.1  -->
<!DOCTYPE svg PUBLIC "-//W3C//DTD SVG 1.1//EN" "http://www.w3.org/Graphics/SVG/1.1/DTD/svg11.dtd">
<svg id="types-6-Page%201" viewBox="0 0 465 537" style="background-color:#ffffff00" version="1.1"
	xmlns="http://www.w3.org/2000/svg" xmlns:xlink="http://www.w3.org/1999/xlink" xml:space="preserve"
	x="0px" y="0px" width="465px" height="537px"
>
	<path d="M 246.5 17.5 C 250.5 24.5 251.5 33.5 254.5 41.5 C 258.5 55.5 263.5 72.5 265.5 87.5 C 268.5 103.5 270.5 136.5 270.5 139.5 L 270.5 162.5 C 279.5 167.5 289.5 171.5 298.5 175.5 C 305.5 178.5 315.5 183.5 323.5 186.5 C 328.5 189.5 335.5 191.5 341.5 194.5 C 360.5 202.5 379.5 210.5 398.5 219.5 C 407.5 223.5 416.5 228.5 424.5 232.5 C 425.5 234.5 426.5 236.5 426.5 240.5 C 426.5 264.5 427.5 266.5 427.5 268.5 C 425.5 268.5 421.5 268.5 419.5 268.5 C 416.5 268.5 414.5 266.5 411.5 266.5 L 266.5 272.5 L 266.5 346.5 L 275.5 346.5 C 276.5 351.5 276.5 359.5 276.5 361.5 C 276.5 364.5 275.5 387.5 272.5 400.5 C 272.5 401.5 268.5 404.5 266.5 408.5 C 263.5 411.5 263.5 419.5 263.5 422.5 C 263.5 430.5 265.5 428.5 277.5 435.5 C 301.5 449.5 326.5 463.5 348.5 481.5 C 351.5 482.5 350.5 487.5 350.5 490.5 C 350.5 492.5 349.5 497.5 348.5 500.5 L 262.5 472.5 C 261.5 473.5 260.5 474.5 260.5 477.5 C 259.5 484.5 259.5 494.5 255.5 503.5 C 254.5 506.5 239.5 522.5 234.5 522.5 C 232.5 522.5 234.5 521.5 233.5 520.5 C 223.5 519.5 214.5 502.5 213.5 496.5 C 212.5 489.5 211.5 481.5 211.5 473.5 C 211.5 473.5 210.5 473.5 209.5 472.5 L 127.5 498.5 L 122.5 498.5 L 122.5 480.5 C 142.5 465.5 210.5 428.5 210.5 423.5 C 210.5 403.5 197.5 406.5 197.5 382.5 L 197.5 347.5 C 201.5 344.5 204.5 346.5 206.5 346.5 L 206.5 272.5 L 60.5 263.5 C 59.5 263.5 58.5 264.5 57.5 265.5 L 49.5 265.5 C 48.5 262.5 48.5 258.5 48.5 256.5 C 48.5 253.5 49.5 245.5 49.5 239.5 C 48.5 231.5 52.5 227.5 58.5 225.5 C 107.5 206.5 157.5 183.5 206.5 162.5 L 206.5 137.5 C 207.5 130.5 208.5 123.5 208.5 116.5 C 209.5 110.5 209.5 103.5 210.5 96.5 C 211.5 92.5 212.5 87.5 212.5 82.5 C 216.5 66.5 219.5 49.5 225.5 34.5 C 227.5 28.5 229.5 21.5 233.5 16.5 C 234.5 14.5 236.5 15.5 239.5 15.5 C 241.5 15.5 245.5 15.5 246.5 17.5 Z"/>
</svg>