<?xml version="1.0" standalone="no"?>
<!-- Generator: Adobe Fireworks 10, Export SVG Extension by Aaron Beall (http://fireworks.abeall.com) . Version: 0.6.1  -->
<!DOCTYPE svg PUBLIC "-//W3C//DTD SVG 1.1//EN" "http://www.w3.org/Graphics/SVG/1.1/DTD/svg11.dtd">
<svg id="types-5-Page%201" viewBox="0 0 418 597" style="background-color:#ffffff00" version="1.1"
	xmlns="http://www.w3.org/2000/svg" xmlns:xlink="http://www.w3.org/1999/xlink" xml:space="preserve"
	x="0px" y="0px" width="418px" height="597px"
>
	<path d="M 236.5 28.5 C 241.5 31.5 242.5 37.5 243.5 43.5 C 247.5 61.5 255.5 119.5 255.5 147.5 L 255.5 226.5 C 256.5 230.5 254.5 234.5 256.5 237.5 C 302.5 289.5 398.5 386.5 398.5 389.5 L 398.5 419.5 L 258.5 325.5 C 257.5 325.5 255.5 326.5 255.5 329.5 L 255.5 433.5 C 256.5 430.5 256.5 426.5 257.5 422.5 L 266.5 422.5 C 266.5 425.5 267.5 428.5 267.5 431.5 C 267.5 443.5 260.5 458.5 251.5 472.5 C 257.5 474.5 263.5 476.5 268.5 477.5 C 269.5 482.5 269.5 488.5 269.5 494.5 C 276.5 498.5 277.5 497.5 277.5 503.5 C 277.5 510.5 272.5 525.5 276.5 528.5 L 242.5 528.5 C 239.5 534.5 237.5 540.5 234.5 547.5 C 230.5 556.5 218.5 564.5 220.5 575.5 C 217.5 575.5 211.5 576.5 209.5 576.5 C 206.5 576.5 202.5 575.5 198.5 574.5 C 196.5 572.5 196.5 567.5 193.5 564.5 C 189.5 557.5 183.5 551.5 180.5 544.5 C 177.5 539.5 177.5 534.5 175.5 529.5 C 175.5 528.5 174.5 527.5 171.5 527.5 C 169.5 527.5 150.5 528.5 142.5 529.5 C 141.5 521.5 139.5 506.5 139.5 504.5 C 139.5 489.5 151.5 502.5 148.5 483.5 C 145.5 471.5 159.5 476.5 166.5 472.5 C 154.5 455.5 150.5 445.5 150.5 430.5 C 150.5 423.5 149.5 421.5 156.5 421.5 C 158.5 421.5 159.5 422.5 161.5 423.5 L 161.5 326.5 C 161.5 326.5 160.5 325.5 159.5 325.5 L 19.5 419.5 L 19.5 389.5 C 65.5 339.5 112.5 289.5 157.5 241.5 C 160.5 238.5 161.5 235.5 162.5 232.5 L 162.5 137.5 C 164.5 129.5 164.5 121.5 165.5 113.5 C 166.5 106.5 166.5 98.5 167.5 90.5 C 168.5 85.5 168.5 79.5 169.5 73.5 C 170.5 68.5 171.5 63.5 171.5 58.5 C 172.5 54.5 173.5 50.5 173.5 46.5 C 174.5 42.5 174.5 33.5 181.5 29.5 C 191.5 22.5 199.5 20.5 209.5 20.5 C 216.5 20.5 230.5 24.5 236.5 28.5 ZM 162.5 432.5 L 162.5 429.5 L 162.5 432.5 Z"/>
</svg>