<?xml version="1.0" standalone="no"?>
<!-- Generator: Adobe Fireworks 10, Export SVG Extension by Aaron Beall (http://fireworks.abeall.com) . Version: 0.6.1  -->
<!DOCTYPE svg PUBLIC "-//W3C//DTD SVG 1.1//EN" "http://www.w3.org/Graphics/SVG/1.1/DTD/svg11.dtd">
<svg id="types-3-Page%201" viewBox="0 0 619 403" style="background-color:#ffffff00" version="1.1"
	xmlns="http://www.w3.org/2000/svg" xmlns:xlink="http://www.w3.org/1999/xlink" xml:space="preserve"
	x="0px" y="0px" width="619px" height="403px"
>
	<path d="M 329.5 62.5 L 329.5 132.5 C 325.5 158.5 356.5 155.5 371.5 156.5 C 440.5 163.5 579.5 173.5 582.5 173.5 C 587.5 173.5 585.5 160.5 586.5 158.5 C 587.5 163.5 588.5 168.5 588.5 173.5 C 594.5 175.5 594.5 180.5 594.5 184.5 C 594.5 186.5 593.5 194.5 593.5 199.5 L 358.5 199.5 L 358.5 365.5 C 358.5 365.5 359.5 366.5 356.5 366.5 C 354.5 366.5 331.5 361.5 328.5 361.5 L 310.5 361.5 C 294.5 359.5 276.5 362.5 260.5 366.5 C 259.5 352.5 258.5 338.5 257.5 324.5 L 259.5 323.5 C 250.5 202.5 257.5 201.5 256.5 200.5 C 254.5 199.5 252.5 200.5 250.5 200.5 L 24.5 199.5 C 25.5 197.5 24.5 194.5 24.5 175.5 C 25.5 175.5 27.5 174.5 30.5 174.5 C 30.5 170.5 28.5 161.5 32.5 159.5 C 32.5 162.5 27.5 173.5 37.5 173.5 C 39.5 173.5 71.5 170.5 88.5 168.5 C 99.5 167.5 113.5 165.5 125.5 165.5 C 138.5 164.5 152.5 163.5 166.5 162.5 C 175.5 161.5 185.5 160.5 194.5 160.5 C 202.5 159.5 211.5 158.5 219.5 158.5 C 233.5 157.5 248.5 157.5 262.5 155.5 C 268.5 154.5 281.5 155.5 286.5 145.5 C 288.5 141.5 288.5 136.5 289.5 131.5 L 289.5 86.5 C 288.5 85.5 284.5 36.5 309.5 36.5 C 320.5 36.5 329.5 54.5 329.5 62.5 ZM 302.5 224.5 C 295.5 224.5 287.5 225.5 278.5 225.5 C 278.5 226.5 277.5 226.5 276.5 227.5 C 276.5 227.5 276.5 229.5 278.5 229.5 L 304.5 229.5 C 303.5 231.5 303.5 236.5 308.5 240.5 C 313.5 237.5 312.5 232.5 314.5 229.5 L 343.5 228.5 C 341.5 226.5 339.5 225.5 337.5 225.5 L 316.5 224.5 C 325.5 221.5 340.5 210.5 350.5 205.5 L 353.5 205.5 L 353.5 314.5 C 353.5 314.5 352.5 315.5 351.5 315.5 C 338.5 319.5 311.5 328.5 308.5 328.5 C 306.5 328.5 279.5 320.5 265.5 315.5 C 265.5 312.5 265.5 308.5 264.5 305.5 L 265.5 205.5 C 277.5 211.5 290.5 218.5 302.5 224.5 Z"/>
</svg>