<?xml version="1.0" standalone="no"?>
<!-- Generator: Adobe Fireworks 10, Export SVG Extension by Aaron Beall (http://fireworks.abeall.com) . Version: 0.6.1  -->
<!DOCTYPE svg PUBLIC "-//W3C//DTD SVG 1.1//EN" "http://www.w3.org/Graphics/SVG/1.1/DTD/svg11.dtd">
<svg id="types-4-Page%201" viewBox="0 0 632 395" style="background-color:#ffffff00" version="1.1"
	xmlns="http://www.w3.org/2000/svg" xmlns:xlink="http://www.w3.org/1999/xlink" xml:space="preserve"
	x="0px" y="0px" width="632px" height="395px"
>
	<path d="M 325.5 65.5 C 329.5 72.5 332.5 81.5 335.5 88.5 C 336.5 89.5 341.5 87.5 341.5 92.5 L 341.5 102.5 L 336.5 102.5 L 336.5 109.5 C 337.5 114.5 337.5 119.5 337.5 124.5 C 338.5 130.5 338.5 136.5 339.5 142.5 C 341.5 151.5 356.5 168.5 368.5 171.5 C 385.5 176.5 404.5 176.5 422.5 177.5 L 597.5 186.5 L 597.5 214.5 L 371.5 214.5 L 371.5 356.5 C 370.5 358.5 370.5 360.5 369.5 362.5 C 362.5 361.5 348.5 358.5 345.5 358.5 L 286.5 358.5 C 278.5 359.5 270.5 360.5 261.5 362.5 L 259.5 212.5 L 35.5 212.5 C 36.5 210.5 36.5 206.5 35.5 184.5 L 186.5 177.5 C 211.5 175.5 237.5 175.5 263.5 171.5 C 266.5 171.5 269.5 168.5 272.5 166.5 C 278.5 162.5 284.5 157.5 288.5 151.5 C 292.5 146.5 293.5 137.5 294.5 131.5 C 295.5 123.5 297.5 108.5 297.5 106.5 L 297.5 103.5 C 296.5 102.5 294.5 102.5 291.5 102.5 L 291.5 96.5 C 292.5 94.5 292.5 91.5 293.5 89.5 C 307.5 86.5 299.5 63.5 315.5 58.5 L 315.5 14.5 C 317.5 14.5 317.5 16.5 317.5 17.5 C 318.5 52.5 318.5 55.5 318.5 57.5 C 318.5 60.5 323.5 61.5 325.5 65.5 ZM 301.5 223.5 C 302.5 224.5 304.5 232.5 310.5 233.5 C 309.5 234.5 308.5 235.5 307.5 235.5 C 300.5 236.5 292.5 236.5 284.5 235.5 C 284.5 235.5 283.5 234.5 283.5 237.5 C 283.5 244.5 305.5 241.5 307.5 242.5 C 310.5 244.5 312.5 248.5 314.5 251.5 L 318.5 251.5 C 320.5 248.5 321.5 245.5 323.5 242.5 C 332.5 241.5 348.5 244.5 352.5 236.5 L 329.5 236.5 C 326.5 235.5 323.5 234.5 320.5 233.5 C 322.5 232.5 324.5 232.5 326.5 231.5 C 328.5 229.5 328.5 223.5 331.5 222.5 C 340.5 218.5 359.5 214.5 362.5 214.5 L 366.5 214.5 L 366.5 316.5 C 365.5 318.5 365.5 319.5 364.5 319.5 C 351.5 323.5 332.5 327.5 319.5 327.5 C 316.5 327.5 301.5 326.5 293.5 324.5 C 285.5 323.5 276.5 321.5 267.5 318.5 C 267.5 317.5 267.5 314.5 266.5 311.5 L 267.5 213.5 C 278.5 216.5 290.5 219.5 301.5 223.5 Z"/>
</svg>